<?xml version="1.0" encoding="UTF-8"?>
<svg id="Layer_1" xmlns="http://www.w3.org/2000/svg" version="1.1" viewBox="0 0 582.5 28.6">
  <!-- Generator: Adobe Illustrator 29.0.1, SVG Export Plug-In . SVG Version: 2.1.0 Build 192)  -->
  <defs>
    <style>
      .st0 {
        fill: #f27921;
      }

      .st1, .st2 {
        fill-rule: evenodd;
      }

      .st1, .st3 {
        fill: #fff;
      }

      .st4 {
        fill: #70706e;
      }

      .st5 {
        fill: #0079be;
      }

      .st6 {
        fill: #f79e1b;
      }

      .st7 {
        fill: #e97626;
      }

      .st2 {
        fill: #016fd0;
      }

      .st8 {
        fill: #211e1f;
      }

      .st9 {
        fill: #098041;
      }

      .st10 {
        fill: #3d3d3c;
      }

      .st11 {
        fill: #eb001b;
      }

      .st12 {
        fill: #ff5f00;
      }

      .st13 {
        fill: #3c67b0;
      }

      .st14 {
        fill: #038a45;
      }

      .st15 {
        fill: #29377d;
      }

      .st16 {
        fill: #f16626;
      }

      .st17 {
        fill: #10357f;
      }
    </style>
  </defs>
  <g id="Group_8997">
    <path id="Path_21254" class="st2" d="M439.2,0h28.6v28.6h-28.6V0Z"/>
    <path id="Path_21255" class="st1" d="M449.5,24.1v-10.3h18.2v2.8l-2.1,2.2,2.1,2.3v2.9h-3.4l-1.8-2-1.8,2h-11.2Z"/>
    <path id="Path_21256" class="st2" d="M450.7,22.9v-7.9h6.8v1.8h-4.6v1.2h4.5v1.8h-4.5v1.2h4.6v1.9h-6.8Z"/>
    <path id="Path_21257" class="st2" d="M457.5,22.9l3.7-4-3.7-4h2.9l2.3,2.5,2.3-2.5h2.8c0,0-3.7,4-3.7,4l3.7,3.9h0c0,0-2.8,0-2.8,0l-2.3-2.6-2.3,2.6h-2.9Z"/>
    <path id="Path_21258" class="st1" d="M450.4,4.7h4.4l1.5,3.5v-3.5h5.4l.9,2.6.9-2.6h4.1v10.3h-21.9l4.7-10.3h0Z"/>
    <path id="Path_21259" class="st2" d="M451.2,5.9l-3.5,8h2.4l.7-1.6h3.6l.7,1.6h2.5l-3.5-8h-2.9ZM451.5,10.4l1.1-2.5,1.1,2.5h-2.2Z"/>
    <path id="Path_21260" class="st2" d="M457.5,13.8V5.8h3.4l1.8,4.9,1.8-4.9h3.3v8h-2.1v-5.4l-2,5.5h-1.9l-2-5.5v5.5h-2.3Z"/>
  </g>
  <g>
    <polygon class="st14" points="70.3 7.2 74.2 14.5 65.9 21.7 70.3 7.2"/>
    <polygon class="st0" points="67.5 7.2 71.5 14.5 63.2 21.7 67.5 7.2"/>
    <g>
      <path class="st15" d="M10.5,11.6h1.9c.7,0,1.2-.1,1.5-.3s.5-.5.7-.9c.1-.5.1-.8-.1-1-.2-.2-.7-.3-1.4-.3h-1.8l-.8,2.5ZM4,19.1l4-13.1h6.3c2,0,3.3.3,4,.9.7.6.8,1.5.4,2.9-.2.8-.6,1.5-1.1,2s-1.2.9-2,1.3c.7.2,1.1.5,1.3.9.2.5.2,1.1-.1,2l-.5,1.8h0c-.1.5-.1.8.1.8v.5h-4.4c0-.3,0-.6.1-.8,0-.2.1-.4.1-.5l.4-1.3c.2-.7.2-1.2,0-1.4-.2-.3-.6-.4-1.3-.4h-1.7l-1.4,4.5h-4.2Z"/>
      <path class="st15" d="M30.4,9.4l-2.9,9.7h-3.5l.4-1.4c-.6.6-1.3,1-1.9,1.3s-1.3.4-2,.4-1.1-.1-1.5-.3c-.4-.2-.7-.5-.9-.9-.2-.3-.3-.8-.2-1.3,0-.5.2-1.3.6-2.5l1.5-5h3.9l-1.5,5c-.2.7-.3,1.2-.2,1.5.1.3.4.4.9.4s.9-.2,1.2-.5c.3-.3.6-.8.8-1.5l1.5-5h3.8Z"/>
      <path class="st15" d="M35.4,11.9h1.4c.9,0,1.5-.1,1.9-.3s.6-.5.8-1,0-.9,0-1c-.2-.2-.8-.3-1.7-.3h-1.4l-.9,2.6ZM29,19.1l3.9-13.1h5.4c1.2,0,2.1,0,2.8.2s1.2.4,1.6.7c.5.4.8.9.9,1.5,0,.6,0,1.3-.2,2.1-.4,1.5-1.2,2.6-2.3,3.4-1.1.8-2.5,1.2-4.1,1.2h-2.5l-1.2,4h-4.3Z"/>
      <path class="st15" d="M48.9,14.8c-.4.2-.9.3-1.6.5-1,.3-1.6.6-1.8,1,0,.3,0,.5,0,.6,0,.2.4.2.7.2.6,0,1.2-.1,1.5-.4.4-.3.7-.8.9-1.4,0-.1,0-.2,0-.3v-.2ZM47.9,19.1v-.9c-.6.4-1.3.8-1.9,1-.6.2-1.3.3-2,.3-1.1,0-1.9-.3-2.3-.8-.4-.5-.5-1.3-.2-2.3s.8-1.7,1.5-2.1c.7-.5,1.9-.8,3.6-1,.2,0,.5-.1.9-.1,1.3-.1,2-.4,2.1-.9,0-.3,0-.5-.2-.6s-.5-.2-1-.2-.7.1-1,.2c-.3.2-.5.4-.6.7h-3.8c.3-1.1,1-1.9,2.1-2.5,1-.6,2.4-.8,4.1-.8s1.5.1,2.1.2c.6.1,1.1.3,1.4.6.4.3.6.7.7,1,0,.4,0,.9-.2,1.7l-1.5,5.4c0,.2,0,.3,0,.5,0,.1,0,.3.2.3v.3c0,0-4,0-4,0Z"/>
      <path class="st15" d="M51.8,22.9l.9-2.9h1.1c.4,0,.7-.1.9-.2s.4-.3.4-.6,0-.3,0-.4v-.5l-.6-8.8h3.9v5.9c0,0,3.3-5.9,3.3-5.9h3.6l-6,9.6c-.7,1.1-1.2,1.8-1.5,2.2-.3.4-.6.7-.9.9-.4.3-.8.5-1.2.6s-1.1.2-2.1.2h-.9c-.3-.1-.6-.1-1-.1"/>
    </g>
  </g>
  <g>
    <g>
      <rect class="st12" x="268.9" y="8.7" width="6.8" height="12.2"/>
      <path class="st11" d="M269.3,14.7c0-2.5,1.2-4.7,3-6.1-1.3-1-3-1.7-4.8-1.7-4.3,0-7.7,3.5-7.7,7.7s3.5,7.7,7.7,7.7,3.5-.6,4.8-1.7c-1.8-1.2-3-3.4-3-5.9Z"/>
      <path class="st6" d="M284.8,14.7c0,4.3-3.5,7.7-7.7,7.7s-3.5-.6-4.8-1.7c1.8-1.4,3-3.6,3-6.1s-1.2-4.7-3-6.1c1.3-1,3-1.7,4.8-1.7,4.2.2,7.7,3.7,7.7,7.9Z"/>
      <path class="st6" d="M284.1,19.5v-.2h.1c0-.1-.3-.1-.3-.1h0c0,.1.1.1.1.1v.2h0ZM284.6,19.5v-.3h-.1v.2c-.1,0-.2-.2-.2-.2h-.1v.3h.1v-.2.2h.2v-.2c.1,0,.1.2.1.2h0Z"/>
    </g>
    <polygon points="292.7 22.5 292.4 22.5 292.4 19.9 292.4 14.7 292.4 9.5 292.4 6.9 292.7 6.9 292.7 12.1 292.7 17.3 292.7 22.5"/>
    <path d="M300.6,19.5h-.8v-9.2h.8v9.2ZM306.5,10.3c.8,0,1.5.1,2.1.3s1.1.5,1.6.9c.4.4.8.9,1,1.5s.3,1.2.3,1.9-.1,1.3-.3,1.9c-.2.6-.6,1.1-1,1.5s-1,.7-1.6.9c-.6.2-1.3.3-2.1.3h-3.4v-9.2h3.4ZM303.9,11.1v7.7h2.6c.7,0,1.3-.1,1.8-.3.5-.2.9-.4,1.3-.8.4-.3.6-.7.8-1.2.2-.5.3-1,.3-1.6s-.1-1.1-.3-1.6c-.2-.5-.4-.9-.8-1.2s-.8-.6-1.3-.8-1.1-.3-1.8-.3h-2.6ZM320.8,10.2c.4,0,.8,0,1.1.1.4.1.7.2,1,.4s.6.4.9.6c.3.2.5.5.7.8l-.7.4c-.2-.2-.3-.5-.6-.7-.2-.2-.5-.4-.7-.5-.3-.1-.5-.2-.8-.3s-.6-.1-.9-.1c-.5,0-1.1.1-1.5.3-.5.2-.9.5-1.2.8-.3.3-.6.8-.8,1.2-.2.5-.3,1-.3,1.6s.1,1.1.3,1.6c.2.5.5.9.8,1.2.3.3.8.6,1.2.8.5.2,1,.3,1.5.3s.6,0,.9-.1.6-.2.8-.3c.3-.1.5-.3.7-.5s.4-.4.6-.7l.7.5c-.2.3-.4.5-.7.8-.3.2-.6.4-.9.6s-.7.3-1,.4c-.4.1-.7.1-1.1.1-.7,0-1.3-.1-1.9-.3-.6-.2-1.1-.6-1.5-1s-.8-.9-1-1.5-.4-1.2-.4-1.9.1-1.3.4-1.9c.2-.6.6-1.1,1-1.5s.9-.7,1.5-1c.6,0,1.2-.2,1.9-.2ZM327,14.4c.1-.2.3-.4.4-.5.2-.1.3-.3.5-.4.2-.1.4-.2.6-.2s.4-.1.6-.1c.4,0,.7.1,1.1.2.3.1.6.3.8.5.2.2.4.5.5.8s.2.7.2,1v3.8h-.7v-3.5c0-.3,0-.6-.1-.8-.1-.3-.2-.5-.4-.6-.2-.2-.4-.3-.6-.4-.2-.1-.5-.1-.8-.1s-.6,0-.8.1c-.3.1-.5.2-.7.4s-.3.4-.4.7-.2.5-.2.8v3.5h-.8v-9.5h.8v4.3ZM336.2,13.2c.4,0,.8.1,1.1.2.4.2.7.4.9.7.3.3.5.6.6,1s.2.8.2,1.3v.2h0c0,.1-5.2.1-5.2.1,0,.4.1.7.2,1s.3.5.5.7.5.3.7.4c.3.1.6.2.9.2s.8-.1,1.2-.2c.3-.2.7-.4.9-.6l.4.5c-.2.2-.4.4-.6.5s-.4.2-.6.3c-.2.1-.4.1-.6.2s-.4,0-.7,0c-.5,0-.9-.1-1.3-.2-.4-.2-.7-.4-1-.7-.3-.3-.5-.6-.6-1-.2-.4-.2-.8-.2-1.3s.1-.9.2-1.3c.2-.4.4-.7.6-1,.3-.3.6-.5,1-.7.6-.2,1-.3,1.4-.3ZM336.2,13.9c-.3,0-.6.1-.9.2-.3.1-.5.3-.7.4-.2.2-.4.4-.5.7s-.2.6-.2.9h4.4c0-.3-.1-.6-.2-.9-.1-.3-.3-.5-.5-.7s-.4-.3-.7-.4c0,0-.4-.2-.7-.2ZM343.5,13.2c.5,0,.9.1,1.3.2.4.2.7.4,1,.7l-.5.5c-.2-.2-.5-.4-.8-.6-.3-.1-.6-.2-1-.2s-.7.1-.9.2c-.3.1-.5.3-.8.5-.2.2-.4.5-.5.8s-.2.6-.2,1,.1.7.2,1,.3.6.5.8c.2.2.5.4.8.5s.6.2.9.2.7-.1,1-.2.6-.3.8-.6l.5.5c-.3.3-.6.5-1,.7s-.8.2-1.3.2-.9-.1-1.3-.2c-.4-.2-.7-.4-1-.7-.3-.3-.5-.6-.7-1s-.2-.8-.2-1.3.1-.9.2-1.3c.2-.4.4-.7.7-1,.3-.3.6-.5,1-.7.4.1.8,0,1.3,0ZM348,16h1l2.6-2.6h.9l-2.9,2.9,3,3.3h-1l-2.7-2.9h-1v2.9h-.8v-9.5h.8v5.9h.1Z"/>
  </g>
  <g>
    <path class="st17" d="M373.1,10.2l-2.7-8.4h1.2l1.3,4.1c.4,1.1.7,2.2.9,3.1h0c.2-1,.6-2,1-3.1l1.4-4.1h1.2l-3,8.4h-1.3Z"/>
    <path class="st17" d="M377.8,7.4c0,1.5,1,2.1,2.1,2.1s1.3-.1,1.7-.3l.2.8c-.4.2-1,.4-2,.4-1.9,0-3-1.2-3-3s1.1-3.2,2.8-3.2,2.5,1.7,2.5,2.8v.5h-4.3ZM381,6.6c0-.7-.3-1.8-1.5-1.8s-1.6,1-1.7,1.8h3.2Z"/>
    <path class="st17" d="M382.9,6.1v-1.9h1v1.2h0c.3-.8.9-1.3,1.7-1.3h.3v1h-.4c-.8,0-1.3.6-1.5,1.4,0,.2-.1.3-.1.5v3.2h-1.1v-4.1h.1Z"/>
    <path class="st17" d="M387.8,2.5c0,.4-.3.7-.7.7s-.7-.3-.7-.7.3-.7.7-.7.7.3.7.7M386.6,4.2h1.1v6h-1.1v-6Z"/>
    <path class="st17" d="M389.1,10.2v-5.2h-.8v-.8h.8v-.3c0-.8.2-1.6.7-2.1.4-.4,1-.6,1.5-.6s.7.1.9.2l-.2.9c-.2,0-.4,0-.7,0-.9,0-1.2.8-1.2,1.7v.3h1.5v.8h-1.5v5.2h-1Z"/>
    <path class="st17" d="M393.9,2.5c0,.4-.3.7-.7.7s-.7-.3-.7-.7.3-.7.7-.7.7.3.7.7M392.7,4.2h1.1v6h-1.1v-6Z"/>
    <path class="st17" d="M395.7,7.4c0,1.5,1,2.1,2.1,2.1s1.3-.1,1.7-.3l.2.8c-.4.2-1,.4-2,.4-1.9,0-3-1.2-3-3s1.1-3.2,2.8-3.2,2.5,1.7,2.5,2.8v.5h-4.3ZM398.9,6.6c0-.7-.3-1.8-1.5-1.8s-1.6,1-1.7,1.8h3.2Z"/>
    <path class="st17" d="M406.1,1.4v8.9h-1v-1h-.1c-.3.7-1.1,1.2-2.1,1.2-1.5,0-2.6-1.2-2.6-3.1s1.2-3.2,2.7-3.2,1.5.4,1.8.9h0V1.4h1.3ZM405,6.7v-.5c-.2-.7-.8-1.3-1.6-1.3s-1.8,1-1.8,2.3.6,2.2,1.8,2.2,1.4-.5,1.6-1.3v-1.4Z"/>
    <path class="st17" d="M410.1,10.2V1.4h1.1v3.8h0c.4-.7,1.1-1.1,2.1-1.1,1.5,0,2.5,1.2,2.5,3.1s-1.4,3.2-2.7,3.2-1.6-.3-2-1.1h0v1h-1ZM411.2,7.8c0,0,0,.3.1.4.2.8.8,1.3,1.6,1.3s1.8-.9,1.8-2.3-.6-2.2-1.8-2.2-1.4.5-1.7,1.3c0,0-.1.3-.1.4v1.1h.1Z"/>
    <path class="st17" d="M417,4.2l1.3,3.6c.1.4.3.9.4,1.2h0c.1-.4.2-.8.4-1.3l1.2-3.5h1.2l-1.6,4.3c-.8,2.1-1.3,3.1-2.1,3.8-.5.5-1.1.7-1.3.7l-.3-.9c.3-.1.6-.3,1-.5.3-.2.7-.7.9-1.2,0-.1.1-.2.1-.3s0-.1-.1-.3l-2.2-5.5h1.1Z"/>
    <path class="st17" d="M388.5,14.3l-3.3,8.4-1.3-7.1c-.2-.8-.8-1.3-1.5-1.3h-5.4v.4c1,.2,2.3.6,3,1,.5.3.6.5.8,1.1l2.5,9.8h3.4l5.2-12.3h-3.4Z"/>
    <polygon class="st17" points="393.2 14.3 390.6 26.7 393.7 26.7 396.4 14.3 393.2 14.3"/>
    <path class="st17" d="M400.6,17.8c0-.4.4-.9,1.4-1,.5-.1,1.7-.1,3.1.6l.6-2.6c-.8-.3-1.8-.5-3-.5-3.2,0-5.4,1.7-5.4,4.1s1.6,2.8,2.8,3.4c1.2.6,1.7,1,1.7,1.5,0,.8-1,1.2-1.9,1.2-1.6,0-2.5-.4-3.3-.8l-.6,2.7c.7.3,2.1.6,3.5.7,3.3,0,5.5-1.7,5.5-4.2,0-3.5-4.5-3.7-4.4-5.1"/>
    <path class="st17" d="M409.8,22.3l1.7-4.6,1,4.6h-2.7ZM411,14.3c-.6,0-1.1.4-1.4.9l-4.8,11.4h3.4l.7-1.8h4.1l.4,1.8h3l-2.6-12.3h-2.8Z"/>
  </g>
  <g>
    <g>
      <path class="st10" d="M92.4,21.9h.4l-.4,1.7c0,.2,0,.4,0,.6,0,.1.2.2.5.2s.4-.1.5-.2.2-.3.3-.6l.4-1.7h.4l-.4,1.7c0,.4-.2.6-.5.8-.2.2-.5.3-.9.3s-.6-.1-.8-.3c0-.2-.2-.5,0-.8l.6-1.7Z"/>
      <path class="st10" d="M94.5,24.6l.7-2.8,1.3,1.7h0c0,.2,0,.2,0,.3l.5-1.9h.4l-.7,2.8-1.3-1.7h0c0-.2,0-.2,0-.3l-.5,1.9h-.4Z"/>
      <path class="st10" d="M97.5,24.6l.7-2.7h.4l-.6,2.7h-.5Z"/>
      <path class="st10" d="M98.6,24.6l.7-2.7h1.5v.4h-1.2l-.2.7h1.1v.4h-1.2l-.3,1.2h-.4Z"/>
      <path class="st10" d="M100.5,24.6l.7-2.7h.4l-.7,2.7h-.4Z"/>
      <path class="st10" d="M101.6,24.6l.7-2.7h1.5v.4h-1.2l-.2.7h1.1v.4h-1.2l-.2.9h1.1v.4c0,0-1.6,0-1.6,0h0Z"/>
      <path class="st10" d="M103.6,24.6l.7-2.7h.6c.4,0,.6,0,.8.1,0,0,.3.1.4.2s.2.3.2.5v.6c0,.2,0,.5-.3.6s-.3.3-.5.5-.3.2-.4.2c-.2,0-.4.1-.7.1h-.8ZM104.1,24.2h.9c0,0,.2-.1.3-.1,0-.1.2-.2.3-.3,0-.1,0-.3.2-.5,0-.2,0-.3,0-.5,0-.1,0-.2,0-.3q0-.1-.2-.1h-.9l-.5,1.8Z"/>
      <path class="st10" d="M108.2,23.4l-.3,1.2h-.4l.7-2.7h1.1c0,0,.2.1.2.1q0,.1,0,.3v.4c0,.1,0,.3-.2.4s-.2.2-.3.3c0,0-.2.1-.3.1h-.6ZM108.3,23h0c.2,0,.4,0,.5-.1s.2-.1.2-.3,0-.3,0-.3c0-.1-.2-.1-.4-.1h0l-.2.8Z"/>
      <path class="st10" d="M111,24.6v-.7h-1.2l-.5.7h-.5l2-2.8.6,2.8h-.4ZM110.1,23.6h.7v-.6c0,0,0-.1,0-.1v-.2c0,.1,0,.1,0,.2s0,.1,0,.1l-.4.6Z"/>
      <path class="st10" d="M112.1,24.6l.3-1.2-.5-1.5h.5l.3.9h0v.2h0c0-.1,0-.2,0-.2l.8-.9h.4l-1.3,1.5-.3,1.2h-.4Z"/>
      <path class="st10" d="M116.2,23.3v-.4c0,.1,0,.1,0,.2s0,.1,0,.2l-1,1.5-.3-1.5v-.4q0,.1,0,.2t0,.2l-.6,1.3h-.4l1.3-2.9.4,1.7h0v.3c0-.1,0-.2.2-.3h0c0-.1,1.2-1.8,1.2-1.8v2.9h-.4v-1.2Z"/>
      <path class="st10" d="M116.9,24.6l.7-2.7h1.5v.4h-1.2l-.2.7h1.1v.4h-1.2l-.2.9h1.1v.4c0,0-1.6,0-1.6,0h0Z"/>
      <path class="st10" d="M118.9,24.6l.7-2.8,1.3,1.7h0c0,.2,0,.2,0,.3l.5-1.9h.4l-.7,2.8-1.3-1.7h0c0-.2,0-.2,0-.3l-.5,1.9h-.4Z"/>
      <path class="st10" d="M123.4,22.3l-.6,2.4h-.4l.6-2.4h-.7v-.4h1.9v.4h-.8Z"/>
      <path class="st10" d="M123.8,24.1l.4-.2c0,.1,0,.2,0,.3s.2.1.3.1.2,0,.3-.1.2-.2.2-.3c0-.2,0-.3-.3-.4h0c-.3-.1-.4-.3-.5-.4s0-.3,0-.4c0-.2.2-.4.4-.5.2-.1.4-.2.6-.2s.4,0,.5.1.2.2.2.3l-.4.2c0-.1,0-.1,0-.2,0,0,0-.1-.2-.1s-.2,0-.3.1q0,.1-.2.3c0,.2,0,.3.3.5h0c.2.1.4.2.5.4s0,.3,0,.4c0,.3-.2.5-.4.6-.2.1-.4.2-.7.2s-.4-.1-.5-.2c0-.2-.1-.3-.1-.5Z"/>
      <path class="st10" d="M127,24.6l.7-2.7h.4l-.7,2.7h-.4Z"/>
      <path class="st10" d="M128.1,24.6l.7-2.8,1.3,1.7h.1c0,.2.1.2.1.3l.5-1.9h.4l-.7,2.8-1.3-1.7h-.1c0-.2-.1-.2-.1-.3l-.5,1.9h-.4Z"/>
      <path class="st10" d="M132.5,22.3l-.6,2.4h-.4l.6-2.4h-.7v-.4h1.9v.4h-.8Z"/>
      <path class="st10" d="M133,24.6l.7-2.7h1.5v.4h-1.2l-.2.7h1.1v.4h-1.2l-.2.9h1.1v.4c-.1,0-1.6,0-1.6,0h0Z"/>
      <path class="st10" d="M135.6,23.4l-.3,1.2h-.4l.7-2.7h1c.1,0,.2.1.2.1q.1.1.1.3v.3c-.1.2-.1.4-.3.5-.1.1-.3.2-.5.2l.6,1.2h-.5l-.6-1.1h0ZM135.7,23.1h0c.3,0,.5,0,.6-.1s.1-.1.2-.3v-.3c-.1-.1-.2-.1-.4-.1h-.1l-.3.8Z"/>
      <path class="st10" d="M137,24.6l.7-2.7h1.5v.4h-1.2l-.2.7h1.1v.4h-1.2l-.3,1.3h-.4Z"/>
      <path class="st10" d="M140.6,24.6v-.7h-1.2l-.5.7h-.5l2-2.8.6,2.8h-.4ZM139.7,23.6h.7v-.6c-.1,0-.1-.1-.1-.1v-.2c0,.1-.1.1-.1.2s-.1.1-.1.1l-.4.6Z"/>
      <path class="st10" d="M143.9,22.6c-.1-.1-.2-.2-.3-.2-.1-.1-.3-.1-.4-.1-.3,0-.6.1-.8.3-.2.2-.4.4-.5.7-.1.3,0,.5.1.7s.3.3.6.3.3,0,.5-.1.3-.1.5-.3v.5c-.2.1-.4.1-.5.2-.1,0-.3.1-.5.1s-.4,0-.5-.1c-.2-.1-.3-.2-.4-.3-.1-.1-.2-.3-.2-.5v-.6c0-.2.1-.4.2-.6s.3-.3.4-.5c.2-.1.3-.2.5-.3.2-.1.4-.1.6-.1s.3,0,.4.1c.1,0,.3.1.4.2v.6Z"/>
      <path class="st10" d="M143.9,24.6l.7-2.7h1.5v.4h-1.2l-.2.7h1.1v.4h-1.2l-.2.9h1.1v.4h-1.6Z"/>
    </g>
    <g>
      <g>
        <path class="st4" d="M136,19.5h-3l4.1-15h3l-4.1,15Z"/>
        <path class="st4" d="M134.5,5c-.2-.3-.5-.4-1-.4h-16.4l-.8,2.9h14.9l-.9,3.1h-14.9l-2.5,8.9h3l1.7-6h13.4c.4,0,.8-.1,1.2-.4s.6-.6.7-1.1l1.7-6c.1-.3.1-.7,0-1Z"/>
        <path class="st4" d="M111.3,18.6c-.2.6-.7,1-1.3,1h-15.4c-.4,0-.7-.1-.9-.4-.2-.3-.3-.6,0-1.1l3.7-13.5h3l-3.3,12.1h11.9l3.3-12.1h3l-3.9,14Z"/>
      </g>
      <g>
        <polygon class="st9" points="145.3 4.6 149.1 12.1 141.2 19.6 145.3 4.6"/>
        <polygon class="st7" points="142.7 4.6 146.4 12.1 138.5 19.6 142.7 4.6"/>
      </g>
    </g>
  </g>
  <g>
    <g>
      <path class="st13" d="M179.8,8c0,.3,0,.5,0,.8,0,.3,0,.6-.2,1,0,.4-.2.8-.4,1.2-.2.4-.4.7-.7,1.1-.3.4-.7.7-1.1,1-.4.3-.9.5-1.6.7-.6.2-1.3.3-2.1.3h-6.3c-.5,0-.8-.4-.8-.9v-2.4h0c1,0,2.2,0,3.5,0h3.8c.5,0,.9-.2,1-.7.2-.4,0-.9-.2-1.2-1.2-1.2-2.4-2.4-3.5-3.6-.3-.3-.6-.4-.9-.3-.4,0-.7.3-.9.7-.1.4,0,.8.3,1.1.5.5.9.9,1.4,1.4l.3.3h-4.7V2.6c0-.5.4-.9.8-.9h6.3c1.7,0,3.1.6,4.3,1.7,1.2,1.1,1.7,2.7,1.7,4.6Z"/>
      <path class="st13" d="M179.8,20.8c0,.3,0,.5,0,.8,0,.3,0,.6-.2,1,0,.4-.2.8-.4,1.2-.2.4-.4.7-.7,1.1-.3.4-.7.7-1.1,1-.4.3-.9.5-1.6.7-.6.2-1.3.3-2.1.3h-6.3c-.5,0-.8-.4-.8-.9v-10.6c0-.5.4-.9.8-.9h6.3c1.7,0,3.1.6,4.3,1.7.5.5.9,1,1.2,1.7-.9,0-2,0-3.1,0h-4.2c-.5,0-.9.2-1,.7-.2.4,0,.9.2,1.2,1.2,1.2,2.4,2.4,3.5,3.6.2.2.5.3.7.3s.1,0,.2,0c.4,0,.7-.3.9-.7.1-.4,0-.8-.3-1.1-.5-.5-.9-.9-1.4-1.4l-.3-.3h5.2c0,.2,0,.5,0,.7Z"/>
    </g>
    <g>
      <path class="st16" d="M182.9,1.8h4.5c2.5,0,3.8,1.3,3.8,3.1s-.9,2.2-2.1,2.5h0c1.3.2,2.5,1.2,2.5,3s-1.3,3.2-4,3.2h-4.8V1.8ZM187.1,6.8c1.1,0,1.9-.6,1.9-1.7s-.6-1.6-1.9-1.6h-2.2v3.3h2.1ZM187.3,11.8c1.5,0,2.2-.7,2.2-1.6s-.8-1.9-2.1-1.9h-2.3v3.5h2.3Z"/>
      <path class="st16" d="M194.9,13.5h-2.1V1.8h2v4.4h.1c.4-1,1.3-1.6,2.6-1.6s3,1.2,3,3.3v5.6h-2.1v-5.3c0-1.2-.6-1.9-1.7-1.9s-1.9.7-1.9,2v5.2Z"/>
      <path class="st16" d="M201.6,11.1c0-2,1.6-2.5,3.3-2.7,1.6-.2,2.2-.2,2.2-.8h0c0-.9-.5-1.4-1.5-1.4s-1.6.5-1.8,1.1l-1.9-.3c.5-1.6,1.9-2.4,3.7-2.4s3.6.7,3.6,3v5.9h-2v-1.2h0c-.4.7-1.2,1.4-2.6,1.4s-3-.9-3-2.7ZM207.2,10.4v-1c-.3.2-1.4.4-1.9.4-.9.1-1.6.5-1.6,1.3s.6,1.2,1.5,1.2c1.3,0,2-.8,2-1.8Z"/>
      <path class="st16" d="M210.7,4.7h2v1.5h0c.3-1,1.2-1.6,2.2-1.6s.6,0,.7,0v1.9c-.2,0-.6-.1-1-.1-1.1,0-2,.8-2,1.9v5.2h-2.1V4.7Z"/>
      <path class="st16" d="M215.9,11.1c0-2,1.6-2.5,3.3-2.7,1.6-.2,2.2-.2,2.2-.8h0c0-.9-.5-1.4-1.5-1.4s-1.6.5-1.8,1.1l-1.9-.3c.5-1.6,1.9-2.4,3.7-2.4s3.6.7,3.6,3v5.9h-2v-1.2h0c-.4.7-1.2,1.4-2.6,1.4s-3-.9-3-2.7ZM221.4,10.4v-1c-.3.2-1.4.4-1.9.4-.9.1-1.6.5-1.6,1.3s.6,1.2,1.5,1.2c1.3,0,2-.8,2-1.8Z"/>
      <path class="st16" d="M229.3,6.3h-1.7v4.6c0,.8.4,1,.9,1s.5,0,.6,0l.4,1.6c-.2,0-.6.2-1.2.2-1.6,0-2.8-.8-2.8-2.4v-4.9h-1.3v-1.6h1.3v-2.1h2.1v2.1h1.7v1.6Z"/>
    </g>
    <g>
      <path class="st16" d="M190.8,19.1c-.2-1.3-1.3-2.1-2.7-2.1s-3.1,1.4-3.1,3.9,1.3,3.9,3.1,3.9,2.4-.7,2.7-2.1h2c-.3,2.2-2.1,3.9-4.7,3.9s-5.1-2.1-5.1-5.8,2.2-5.8,5.1-5.8,4.4,1.4,4.7,3.9h-2Z"/>
      <path class="st16" d="M193.7,22.3c0-2.6,1.6-4.4,4-4.4s4,1.7,4,4.4-1.6,4.3-4,4.3-4-1.7-4-4.3ZM199.7,22.3c0-1.5-.7-2.8-2-2.8s-2,1.2-2,2.8.7,2.8,2,2.8,2-1.2,2-2.8Z"/>
      <path class="st16" d="M204.7,26.5h-2v-8.4h1.9v1.4h0c.4-.9,1.2-1.5,2.5-1.5s2.9,1.2,2.9,3.2v5.4h-2v-5.1c0-1.1-.6-1.8-1.6-1.8s-1.8.7-1.8,1.9v4.9Z"/>
      <path class="st16" d="M213.5,26.5h-2v-8.4h1.9v1.4h0c.4-.9,1.2-1.5,2.5-1.5s2.9,1.2,2.9,3.2v5.4h-2v-5.1c0-1.1-.6-1.8-1.6-1.8s-1.8.7-1.8,1.9v4.9Z"/>
      <path class="st16" d="M219.9,22.3c0-2.6,1.6-4.4,4-4.4s3.8,1.3,3.8,4.3v.6h-5.8c0,1.4.9,2.3,2.1,2.3s1.5-.4,1.8-1.1l1.8.2c-.3,1.5-1.7,2.4-3.7,2.4s-4.1-1.7-4.1-4.3ZM225.9,21.5c0-1.1-.8-2-1.9-2s-2,.9-2,2h3.9Z"/>
      <path class="st16" d="M228.5,22.3c0-2.6,1.6-4.4,4-4.4s3.5,1.2,3.6,3h-1.9c-.2-.8-.7-1.4-1.7-1.4s-2,1-2,2.7.8,2.8,2,2.8,1.5-.5,1.7-1.4h1.9c-.1,1.8-1.5,3-3.6,3s-4-1.8-4-4.3Z"/>
      <path class="st16" d="M241.3,19.6h-1.7v4.4c0,.8.4,1,.9,1s.5,0,.6,0l.3,1.6c-.2,0-.6.2-1.2.2-1.5,0-2.6-.7-2.6-2.3v-4.7h-1.2v-1.5h1.2v-2h2v2h1.7v1.5Z"/>
    </g>
  </g>
  <g id="__x23_Layer_x5F_1">
    <path class="st5" d="M503,26.4c6.6,0,12.6-5.4,12.6-12s-6-12.2-12.6-12.2h-5.7c-6.7,0-12.2,5-12.2,12.2s5.5,12,12.2,12h5.7Z"/>
    <path class="st3" d="M497.3,3.2c-6.1,0-11.1,5-11.1,11.1,0,6.1,5,11.1,11.1,11.1,6.1,0,11.1-5,11.1-11.1,0-6.1-5-11.1-11.1-11.1ZM490.3,14.3h0c0-3,1.9-5.5,4.5-6.5v13.1c-2.6-1-4.5-3.6-4.5-6.5ZM499.8,20.9h0V7.8c2.6,1,4.5,3.6,4.5,6.5,0,3-1.9,5.5-4.5,6.5Z"/>
    <path class="st8" d="M519.5,7.4c0-1.1-.6-1.1-1.2-1.1v-.3c.5,0,1,0,1.5,0s1.3,0,2.2,0c3.3,0,5.1,2.2,5.1,4.4s-.7,4.4-5.2,4.4-1.2,0-1.8,0-1.1,0-1.7,0v-.3c.8,0,1.1-.1,1.2-1v-6.2h0ZM520.7,13.4h0c0,1,.7,1.1,1.3,1.1,2.7,0,3.6-2.1,3.6-4s-1.5-4.1-4-4.1-.8,0-1,0v6.9h0Z"/>
    <path class="st8" d="M527.5,14.6h.2c.4,0,.6,0,.6-.4v-3.4c0-.6-.2-.6-.7-.9v-.2c.6-.2,1.3-.4,1.4-.5,0,0,.2,0,.2,0s0,0,0,.2v4.9c0,.4.3.4.6.4h.2v.3c-.4,0-.9,0-1.3,0s-.9,0-1.4,0v-.3h0ZM528.9,7.1h0c-.3,0-.6-.3-.6-.6s.3-.6.6-.6.6.3.6.6-.3.6-.6.6Z"/>
    <path class="st8" d="M531.5,10.8c0-.5-.1-.6-.7-.8v-.2c.5-.2,1.1-.3,1.7-.6,0,0,0,0,0,.1v.8c.7-.5,1.3-1,2.2-1s1.5.8,1.5,1.8v3.3c0,.4.3.4.6.4h.2v.3c-.4,0-.9,0-1.3,0s-.9,0-1.4,0v-.3h.2c.4,0,.6,0,.6-.4v-3.3c0-.7-.4-1.1-1.2-1.1s-1.1.3-1.5.6v3.8c0,.4.3.4.6.4h.2v.3c-.4,0-.9,0-1.3,0s-.9,0-1.4,0v-.3h.2c.4,0,.6,0,.6-.4v-3.4h0Z"/>
    <path class="st8" d="M538,11.4c0,.1,0,.3,0,.7,0,1.2.9,2.2,1.9,2.2s1.2-.4,1.7-.9l.2.2c-.6.8-1.3,1.4-2.4,1.4-2,0-2.4-2-2.4-2.8,0-2.5,1.7-3.2,2.6-3.2s2.1.6,2.1,2c0,0,0,.2,0,.2h-.1c0,0-3.6,0-3.6,0h0ZM540.2,11h0c.3,0,.4-.2.4-.3,0-.6-.4-1.2-1.1-1.2s-1.3.6-1.5,1.5h2.2Z"/>
    <path class="st8" d="M542,14.6h.3c.4,0,.6,0,.6-.4v-3.6c0-.4-.5-.5-.7-.6v-.2c.9-.4,1.4-.7,1.6-.7s.1,0,.1.2v1.1h0c.3-.5.9-1.3,1.6-1.3s.7.2.7.7-.2.6-.6.6-.4-.3-.8-.3-.9.3-.9,1.1v3c0,.4.3.4.6.4h.7v.3c-.7,0-1.2,0-1.8,0s-1.1,0-1.5,0v-.3h0Z"/>
    <path class="st8" d="M546.9,13.1c.2.8.7,1.6,1.6,1.6s1-.5,1-.9c0-1.5-2.8-1-2.8-3.1s.6-1.6,2-1.6,1,.1,1.4.4v1.3c0,0-.2,0-.2,0-.1-.8-.6-1.3-1.4-1.3s-1,.3-1,.8c0,1.5,2.9,1,2.9,3s-.7,1.7-2.2,1.7-1.1-.2-1.5-.4v-1.5c-.1,0,0,0,0,0h0Z"/>
    <path class="st8" d="M562,8.3h-.3c-.2-1.5-1.3-2.1-2.7-2.1s-3.6,1-3.6,4,1.8,4.4,3.8,4.4,2.3-.9,2.6-2.2h.3c0,0-.3,1.9-.3,1.9-.5.3-2,.7-2.8.7-3,0-4.9-1.9-4.9-4.8s2.3-4.5,4.8-4.5,2,.3,3,.7v1.8h.1Z"/>
    <path class="st8" d="M562.4,14.6h.2c.4,0,.6,0,.6-.4v-7.1c0-.8-.2-.9-.7-1v-.2c.5-.2,1-.4,1.3-.5.1,0,.2-.1.3-.1,0,0,.1,0,.1.2v8.8c0,.4.3.4.6.4h.2v.3c-.4,0-.9,0-1.3,0s-.9,0-1.4,0v-.3h0Z"/>
    <path class="st8" d="M570.6,14.2c0,.2.1.2.4.2s.3,0,.5,0v.3c-.5,0-1.6.3-1.8.4h0v-1.1c-.8.6-1.3,1.1-2.2,1.1s-1.4-.4-1.4-1.5v-3.3c0-.3,0-.6-.8-.7v-.2c.5,0,1.5,0,1.6,0s.1,0,.1.4v3.3c0,.4,0,1.5,1.1,1.5s1-.3,1.5-.8v-3.4c0-.3-.6-.4-1.1-.5v-.2c1.1,0,1.9-.2,2-.2s.1,0,.1.2v4.7h0Z"/>
    <path class="st8" d="M573.1,10c.5-.4,1.2-.9,1.9-.9,1.5,0,2.4,1.3,2.4,2.7s-1.2,3.3-3,3.3-1.4-.3-1.8-.4l-.4.3h-.3c.1-.9.2-1.6.2-2.4v-5.5c0-.8-.2-.9-.7-1v-.2c.5-.2,1-.4,1.3-.5.1,0,.2-.1.3-.1,0,0,.1,0,.1.2v4.6h0ZM573.1,13.5h0c0,.5.5,1.3,1.3,1.3,1.4,0,1.9-1.3,1.9-2.5s-1-2.5-2-2.5-.9.3-1.2.6v3.1h0Z"/>
    <path class="st8" d="M518.3,22.3h0c.2,0,.5,0,.5-.4v-3.6c0-.4-.3-.4-.5-.4h0v-.2c.3,0,.7,0,1,0s.8,0,1.1,0v.2h0c-.2,0-.5,0-.5.4v3.6c0,.4.3.4.5.4h0v.2c-.3,0-.7,0-1.1,0s-.7,0-1,0v-.2h0Z"/>
    <path class="st8" d="M520.4,22.5c-.3,0-.7,0-1.1,0s-.7,0-1,0h0v-.2h0s0,0,0,0h0c.3,0,.5,0,.5-.4v-3.6c0-.3-.2-.4-.5-.4h-.1v-.3h0c.3,0,.7,0,1,0s.8,0,1.1,0h0v.3h-.1c-.3,0-.5,0-.5.4v3.6c0,.3.2.4.5.4h.1v.3h0ZM520.4,22.5h0c0-.1,0-.1,0-.1-.2,0-.5,0-.5-.4v-3.6c0-.4.3-.4.5-.4h0c-.3-.1-.7-.1-1.1-.1s-.7,0-1,0h0c0,.1,0,.1,0,.1.2,0,.5,0,.5.4v3.6c0,.4-.3.4-.5.4h0c.3.1.7.1,1,.1.3,0,.7,0,1.1,0h0Z"/>
    <path class="st8" d="M525.2,21.1h0v-2.6c0-.6-.4-.7-.6-.7h-.2v-.2c.3,0,.6,0,1,0s.6,0,.9,0v.2h-.1c-.3,0-.6,0-.6.9v3.1c0,.2,0,.5,0,.7h-.3l-3.6-4v2.8c0,.6.1.8.6.8h.1v.2c-.3,0-.6,0-.9,0s-.6,0-.9,0v-.2h0c.5,0,.6-.3.6-.9v-2.9c0-.4-.3-.6-.6-.6h0v-.2c.3,0,.5,0,.8,0s.4,0,.6,0l3.1,3.5h0Z"/>
    <path class="st8" d="M525.6,22.6h-.3s-3.5-3.9-3.5-3.9v2.8c0,.6,0,.8.6.8h.1v.3h0c-.3,0-.6,0-.9,0s-.6,0-.9,0h0v-.3h.1c.5,0,.6-.3.6-.8v-2.9c0-.4-.3-.6-.6-.6h-.1v-.3h0c.3,0,.5,0,.8,0s.4,0,.6,0l3,3.4v-2.5c0-.6-.4-.6-.6-.6h-.2v-.3h0c.3,0,.6,0,1,0s.6,0,.9,0h0v.3h-.1c-.3,0-.6,0-.6.8v3.1c0,.2,0,.5,0,.7h0s0,0,0,0h0ZM525.3,22.6h.2c0-.2,0-.4,0-.7v-3.1c0-.8.3-.9.6-.9h0c-.3-.1-.5-.1-.8-.1s-.6,0-.9,0h0c0,.1.1.1.1.1.2,0,.6,0,.6.7v2.6s0,0,0,0h0s-3.1-3.5-3.1-3.5c-.2,0-.4,0-.6,0s-.5,0-.8,0h0c0,.1,0,.1,0,.1.3,0,.7.2.7.7v2.9c0,.6-.2.9-.7.9h0s0,.1,0,.1c.3,0,.6,0,.9,0s.6,0,.9,0h0c0-.1,0-.1,0-.1-.5,0-.7-.2-.7-.8v-2.9l3.6,4h0ZM525.2,21.1h0s0,0,0,0ZM525.1,21.1h0s0,0,0,0h0Z"/>
    <path class="st8" d="M527.3,18c-.5,0-.5.1-.6.6h-.2c0-.2,0-.4,0-.6,0-.2,0-.4,0-.6h.2c0,.2.2.2.4.2h3.6c.2,0,.4,0,.4-.2h.2c0,.2,0,.4,0,.6,0,.2,0,.4,0,.6h-.2c0-.2,0-.6-.5-.6h-1.1v3.7c0,.5.2.6.6.6h.1v.2c-.3,0-.8,0-1.1,0s-.9,0-1.2,0v-.2h.1c.4,0,.6,0,.6-.6v-3.7h-1.1Z"/>
    <path class="st8" d="M530,22.5c-.3,0-.8,0-1.1,0s-.9,0-1.2,0h0v-.3h.2c.4,0,.5,0,.5-.5v-3.7h-1.1c0,0,1.2,0,1.2,0v3.7c0,.6-.2.6-.6.6h-.1c.3.1.7.1,1.1.1s.8,0,1.1,0h0c0-.1-.1-.1-.1-.1-.3,0-.6,0-.6-.6v-3.7h1.2c.5,0,.5.4.5.7h.1c0-.2,0-.4,0-.6,0-.2,0-.4,0-.5h-.1c0,.2-.2.2-.4.2h-3.6c-.2,0-.3,0-.4-.2h-.1c0,.2,0,.4,0,.6,0,.2,0,.4,0,.6h.1c0-.5.2-.6.7-.6h0c-.5,0-.5.2-.6.7h0s0,0,0,0h-.2,0c0-.2,0-.4,0-.6,0-.2,0-.4,0-.6h0s0,0,0,0h.2c0,.2.2.2.4.2h3.6c.2,0,.3,0,.3-.2h0s0,0,0,0h.2s0,0,0,0c0,.2,0,.4,0,.6,0,.2,0,.4,0,.6h0s0,0,0,0h-.2c0,0,0,0,0,0,0-.3,0-.6-.5-.6h-1.1v3.6c0,.5.2.6.5.6h.2v.3h0Z"/>
    <path class="st8" d="M531.5,22.3h0c.2,0,.5,0,.5-.4v-3.6c0-.4-.3-.4-.5-.4h0v-.2c.4,0,1.1,0,1.7,0s1.3,0,1.8,0c0,.3,0,.8,0,1.1h-.2c0-.4-.1-.8-.8-.8h-1v1.8h.8c.4,0,.5-.2.5-.6h.2c0,.3,0,.5,0,.8s0,.5,0,.8h-.2c0-.4,0-.6-.5-.6h-.8v1.6c0,.5.4.5.8.5.8,0,1.2,0,1.4-.8h.2c0,.4-.2.8-.2,1.1-.4,0-1.2,0-1.9,0s-1.4,0-1.8,0v-.2h0Z"/>
    <path class="st8" d="M535.2,22.5c-.4,0-1.2,0-1.9,0s-1.4,0-1.8,0h0v-.2h0s0,0,0,0h0c.3,0,.5,0,.5-.4v-3.6c0-.3-.2-.4-.5-.4h-.1v-.3h0c.4,0,1.1,0,1.7,0s1.3,0,1.8,0h0,0c0,.1,0,.3,0,.4,0,.2,0,.5,0,.7h0s0,0,0,0h-.2c0,0,0,0,0,0,0-.4-.1-.8-.8-.8h-.9v1.8s.8,0,.8,0c.4,0,.5-.2.5-.6h0s0,0,0,0h.2,0c0,.3,0,.6,0,.8s0,.5,0,.8h0s0,0,0,0h-.2s0,0,0,0c0-.4,0-.7-.5-.7h-.8s0,1.6,0,1.6c0,.4.4.4.8.4.8,0,1.2,0,1.4-.8h0s0,0,0,0h.2c0,0,0,0,0,0,0,.4-.2.7-.2,1.1h0s0,0,0,0h0ZM535.1,22.5h0c0-.3.1-.7.2-1h-.1c-.2.7-.6.8-1.4.8-.4,0-.9,0-.9-.5v-1.6h.9c.5,0,.5.3.6.7h.1c0-.3,0-.5,0-.8s0-.5,0-.8h-.1c0,.4-.2.6-.6.6h-.9v-1.9h1c.7,0,.8.4.9.8h.1c0-.2,0-.5,0-.7s0-.2,0-.3c-.5,0-1.2,0-1.7,0s-1.3,0-1.7,0h0c0,.1,0,.1,0,.1.2,0,.5,0,.5.4v3.6c0,.4-.3.4-.5.4h0c.4.1,1.2.1,1.8.1.6,0,1.4,0,1.8,0h0Z"/>
    <path class="st8" d="M536.3,18.4c0-.5-.3-.5-.5-.5h-.1v-.2c.2,0,.6,0,1.1,0s.7,0,1.1,0c.9,0,1.6.2,1.6,1.2s-.4,1-1,1.2l1.2,1.8c.2.3.3.4.7.4v.2c-.2,0-.4,0-.7,0s-.4,0-.6,0c-.5-.7-1-1.4-1.4-2.2h-.5v1.5c0,.5.2.6.6.6h.1v.2c-.4,0-.8,0-1.2,0s-.7,0-1,0v-.2h.1c.3,0,.5-.1.5-.4v-3.5h0ZM537.2,20h.3c.7,0,1.1-.3,1.1-1.1s-.4-1-1-1-.3,0-.4,0v2.1h0Z"/>
    <path class="st8" d="M540.4,22.5c-.2,0-.5,0-.7,0s-.4,0-.7,0c-.5-.7-1-1.4-1.4-2.2h-.4v1.4c0,.5.2.5.5.5h.2v.3h0c-.4,0-.8,0-1.2,0s-.7,0-1,0h0v-.3h.2c.2,0,.5-.1.5-.3v-3.5c0-.5-.2-.5-.5-.5h-.2v-.3h0c.2,0,.7,0,1.1,0s.7,0,1.1,0c.9,0,1.7.2,1.7,1.2,0,.6-.4,1-.9,1.2l1.2,1.7c.2.3.3.4.7.4h0v.3h0ZM537.2,20.2h.5c.5.8.9,1.6,1.4,2.2.2,0,.4,0,.6,0s.4,0,.6,0v-.2c-.3,0-.5-.1-.7-.4l-1.2-1.8h0c.5-.2.9-.6.9-1.2,0-1-.7-1.2-1.6-1.2-.4,0-.7,0-1.1,0s-.8,0-1,0h0c0,.1,0,.1,0,.1.2,0,.5,0,.5.6v3.5c0,.3-.3.4-.5.4h0c.3.1.6.1,1,.1s.8,0,1.2,0h0c0-.1,0-.1,0-.1-.3,0-.6,0-.6-.6v-1.5h0ZM537.2,20h0v-2.1h0c0,0,.2,0,.4,0,.6,0,1,.4,1,1,0,.8-.4,1.1-1.1,1.1h-.3ZM537.6,20h0c.7,0,1-.2,1-1,0-.6-.4-1-1-1-.2,0-.3,0-.4,0v2h.3Z"/>
    <path class="st8" d="M545.1,21.1h0v-2.6c0-.6-.4-.7-.6-.7h-.2v-.2c.3,0,.6,0,1,0s.6,0,.9,0v.2h-.1c-.3,0-.6,0-.6.9v3.1c0,.2,0,.5,0,.7h-.3l-3.6-4v2.8c0,.6.1.8.6.8h.1v.2c-.3,0-.6,0-.9,0s-.6,0-.9,0v-.2h0c.5,0,.6-.3.6-.9v-2.9c0-.4-.3-.6-.6-.6h0v-.2c.3,0,.5,0,.8,0s.4,0,.6,0l3.1,3.5h0Z"/>
    <path class="st8" d="M545.5,22.6h-.3s-3.5-3.9-3.5-3.9v2.8c0,.6,0,.8.6.8h.1v.3h0c-.3,0-.6,0-.9,0s-.6,0-.9,0h0v-.3h.1c.5,0,.6-.3.6-.8v-2.9c0-.4-.3-.6-.6-.6h-.1v-.3h0c.3,0,.5,0,.8,0s.4,0,.6,0l3,3.4v-2.5c0-.5-.4-.6-.6-.6h-.2v-.3h0c.3,0,.6,0,1,0s.6,0,.9,0h0v.3h-.1c-.3,0-.6,0-.6.8v3.1c0,.2,0,.5,0,.7h0s0,0,0,0h0ZM545.3,22.6h.2c0-.2,0-.4,0-.7v-3.1c0-.8.4-.9.6-.9h0c-.3-.1-.5-.1-.8-.1s-.6,0-.9,0h0c0,.1.1.1.1.1.2,0,.6,0,.6.7v2.6s0,0,0,0h0s-3.1-3.5-3.1-3.5c-.2,0-.4,0-.6,0s-.5,0-.8,0h0c0,.1,0,.1,0,.1.3,0,.7.2.7.7v2.9c0,.6-.2.9-.7.9h0s0,.1,0,.1c.3,0,.6,0,.9,0s.6,0,.9,0h0c0-.1,0-.1,0-.1-.5,0-.7-.2-.7-.8v-2.9l3.6,4h0ZM545.1,21.1h0s0,0,0,0ZM545.1,21.1h0s0,0,0,0h0Z"/>
    <path class="st8" d="M547.3,21.5c0,.2-.2.4-.2.5,0,.2.3.2.5.2h0v.2c-.3,0-.6,0-.8,0s-.5,0-.7,0v-.2h0c.3,0,.5-.2.6-.4l1.1-3.2c0-.3.2-.6.3-.9.2,0,.5-.2.6-.3,0,0,0,0,0,0s0,0,0,0c0,0,0,.1,0,.2l1.3,3.6c0,.2.2.5.3.7,0,.2.2.3.5.3h0v.2c-.3,0-.6,0-1,0s-.7,0-1,0v-.2h0c.2,0,.4,0,.4-.2s0-.3-.1-.5l-.3-.8h-1.6l-.2.7h0ZM548.3,18.5h0l-.6,2h1.3l-.6-2Z"/>
    <path class="st8" d="M551,22.5c-.3,0-.6,0-1,0s-.7,0-1,0h0s0,0,0,0v-.2h.1c.2,0,.4,0,.4-.2,0,0,0-.3-.1-.5l-.3-.8h-1.5l-.2.7c0,.2-.2.4-.2.5,0,.2.3.2.5.2h.1v.3h0c-.3,0-.6,0-.8,0s-.5,0-.7,0h0s0,0,0,0v-.2h0c.3,0,.5-.1.6-.4l1.1-3.2c0-.3.2-.6.3-.9.2,0,.5-.2.6-.3,0,0,0,0,0,0,0,0,0,0,0,0,0,0,0,.1,0,.2l1.3,3.6c0,.2.2.5.3.7,0,.2.2.3.4.3h0v.3h0ZM549,22.5h0c.3,0,.7,0,1,0s.6,0,.9,0h0c0-.1,0-.1,0-.1-.2,0-.4,0-.5-.3,0-.2-.2-.5-.3-.7l-1.3-3.6c0,0,0-.1,0-.2,0,0,0,0,0,0h0s0,0,0,0c-.1,0-.4.2-.6.3,0,.3-.2.6-.3.9l-1.1,3.2c-.1.3-.3.5-.6.5h0c.2.1.5.1.7.1s.5,0,.8,0h0c0-.1,0-.1,0-.1-.2,0-.5,0-.5-.3,0-.1,0-.3.2-.5h0s0,0,0,0l.2-.7h1.6l.3.8c0,.2.1.4.1.5,0,.2-.3.2-.5.2h0q0,.1,0,.1ZM547.6,20.4h0l.7-2h0s0,0,0,0h0s0,0,0,0l.7,2h-1.4ZM547.7,20.4h1.2l-.6-1.9-.6,1.9ZM548.3,18.5h0s0,0,0,0Z"/>
    <path class="st8" d="M551.3,18c-.5,0-.5.1-.6.6h-.2c0-.2,0-.4,0-.6,0-.2,0-.4,0-.6h.2c0,.2.2.2.4.2h3.6c.2,0,.4,0,.4-.2h.2c0,.2,0,.4,0,.6,0,.2,0,.4,0,.6h-.2c0-.2,0-.6-.5-.6h-1.1v3.7c0,.5.2.6.6.6h.1v.2c-.3,0-.8,0-1.1,0s-.9,0-1.2,0v-.2h.1c.4,0,.6,0,.6-.6v-3.7h-1.1Z"/>
    <path class="st8" d="M554,22.5c-.3,0-.8,0-1.1,0s-.9,0-1.2,0h0v-.3h.2c.4,0,.5,0,.5-.5v-3.7h-1.1c0,0,1.2,0,1.2,0v3.7c0,.6-.2.6-.6.6h-.1c.3.1.7.1,1.1.1s.8,0,1.1,0h0c0-.1-.1-.1-.1-.1-.3,0-.6,0-.6-.6v-3.7h1.2c.5,0,.5.4.5.7h.2c0-.2,0-.4,0-.6,0-.2,0-.4,0-.5h-.1c0,.2-.2.2-.4.2h-3.6c-.2,0-.3,0-.4-.2h-.1c0,.2,0,.4,0,.6,0,.2,0,.4,0,.6h.1c0-.5.2-.6.7-.6h0c-.5,0-.5.2-.6.7h0s0,0,0,0h-.2,0c0-.2,0-.4,0-.6,0-.2,0-.4,0-.6h0s0,0,0,0h.2c0,.2.2.2.4.2h0s3.6,0,3.6,0c.2,0,.3,0,.3-.2h0s0,0,0,0h.2s0,0,0,0c0,.2,0,.4,0,.6,0,.2,0,.4,0,.6h0s0,0,0,0h-.2c0,0,0,0,0,0,0-.3,0-.6-.5-.6h-1.1v3.6c0,.5.2.6.5.6h.2v.3h0Z"/>
    <path class="st8" d="M555.5,22.3h0c.2,0,.5,0,.5-.4v-3.6c0-.4-.3-.4-.5-.4h0v-.2c.3,0,.7,0,1,0s.8,0,1.1,0v.2h0c-.2,0-.5,0-.5.4v3.6c0,.4.3.4.5.4h0v.2c-.3,0-.7,0-1.1,0s-.7,0-1,0v-.2h0Z"/>
    <path class="st8" d="M557.6,22.5c-.3,0-.7,0-1.1,0s-.7,0-1,0h0v-.2h0s0,0,0,0h0c.2,0,.5,0,.5-.4v-3.6c0-.3-.2-.4-.5-.4h-.1v-.3h0c.3,0,.7,0,1,0s.8,0,1.1,0h0v.3h-.1c-.3,0-.5,0-.5.4v3.6c0,.3.2.4.5.4h.1v.3h0ZM557.6,22.5h0c0-.1,0-.1,0-.1-.2,0-.5,0-.5-.4v-3.6c0-.4.3-.4.5-.4h0c-.3-.1-.7-.1-1.1-.1s-.7,0-1,0h0c0,.1,0,.1,0,.1.2,0,.5,0,.5.4v3.6c0,.4-.3.4-.5.4h0c.3.1.7.1,1,.1s.7,0,1.1,0h0Z"/>
    <path class="st8" d="M560.4,17.6c1.5,0,2.6.9,2.6,2.4s-1.1,2.6-2.6,2.6-2.6-1-2.6-2.5,1.1-2.6,2.6-2.6h0ZM560.5,22.3h0c1.3,0,1.6-1.2,1.6-2.2s-.5-2.2-1.7-2.2-1.6,1.1-1.6,2,.6,2.4,1.7,2.4h0Z"/>
    <path class="st8" d="M557.8,20.1c0-1.5,1.1-2.6,2.6-2.6h0c-1.4,0-2.5,1.2-2.5,2.6,0,1.5,1.1,2.5,2.6,2.5,1.5,0,2.6-1,2.6-2.6,0-1.5-1.2-2.4-2.6-2.4h0c1.5,0,2.7.9,2.7,2.4,0,1.6-1.2,2.7-2.6,2.7-1.5,0-2.6-1-2.6-2.5h0ZM558.8,19.9h0c0-.9.4-2,1.6-2,1.2,0,1.7,1.2,1.7,2.3,0,1-.2,2.2-1.6,2.2h0c1.3,0,1.5-1.2,1.5-2.2,0-1-.5-2.2-1.7-2.2-1.2,0-1.5,1.1-1.5,2,0,1.2.6,2.4,1.7,2.4h0c-1.1,0-1.7-1.1-1.7-2.4h0Z"/>
    <path class="st8" d="M567.7,21.1h0v-2.6c0-.6-.4-.7-.6-.7h-.1v-.2c.3,0,.6,0,1,0s.6,0,.9,0v.2h-.1c-.3,0-.6,0-.6.9v3.1c0,.2,0,.5,0,.7h-.3l-3.6-4v2.8c0,.6.1.8.6.8h.1v.2c-.3,0-.6,0-.9,0s-.6,0-.9,0v-.2h0c.5,0,.6-.3.6-.9v-2.9c0-.4-.3-.6-.6-.6h0v-.2c.3,0,.5,0,.8,0s.4,0,.6,0l3.1,3.5h0Z"/>
    <path class="st8" d="M568.1,22.6h-.3s-3.5-3.9-3.5-3.9v2.8c0,.6,0,.8.6.8h.1v.3h0c-.3,0-.6,0-.9,0s-.6,0-.9,0h0v-.3h.1c.5,0,.6-.3.6-.8v-2.9c0-.4-.3-.6-.6-.6h-.1v-.3h0c.3,0,.5,0,.8,0s.4,0,.6,0l3,3.4v-2.5c0-.6-.4-.6-.6-.6h-.2v-.3h0c.3,0,.6,0,1,0s.6,0,.9,0h0v.3h-.1c-.3,0-.6,0-.6.8v3.1c0,.2,0,.5,0,.7h0s0,0,0,0h0ZM567.8,22.6h.2c0-.2,0-.4,0-.7v-3.1c0-.8.3-.9.6-.9h0c-.3-.1-.5-.1-.8-.1s-.6,0-.9,0h0c0,.1.1.1.1.1.2,0,.6,0,.6.7v2.6s0,0,0,0h0s-3.1-3.5-3.1-3.5c-.2,0-.4,0-.6,0s-.5,0-.8,0h0c0,.1,0,.1,0,.1.3,0,.7.2.7.7v2.9c0,.6-.2.9-.7.9h0s0,.1,0,.1c.3,0,.6,0,.9,0s.6,0,.9,0h0c0-.1,0-.1,0-.1-.5,0-.7-.2-.7-.8v-2.9l3.6,4h0ZM567.7,21.1h0s0,0,0,0ZM567.7,21.1h0s0,0,0,0h0Z"/>
    <path class="st8" d="M569.9,21.5c0,.2-.2.4-.2.5,0,.2.3.2.5.2h0v.2c-.3,0-.6,0-.8,0s-.5,0-.7,0v-.2h0c.3,0,.5-.2.6-.4l1.1-3.2c0-.3.2-.6.3-.9.2,0,.5-.2.6-.3,0,0,0,0,0,0s0,0,0,0c0,0,0,.1,0,.2l1.3,3.6c0,.2.2.5.3.7,0,.2.2.3.5.3h0v.2c-.3,0-.6,0-1,0s-.7,0-1,0v-.2h0c.2,0,.4,0,.4-.2s0-.3-.1-.5l-.3-.8h-1.6l-.2.7h0ZM570.9,18.5h0l-.6,2h1.3l-.6-2Z"/>
    <path class="st8" d="M573.6,22.5c-.3,0-.6,0-1,0s-.7,0-1,0h0s0,0,0,0v-.2h.1c.2,0,.4,0,.4-.2,0,0,0-.3-.1-.5l-.3-.8h-1.5l-.2.7c0,.2-.2.4-.2.5,0,.2.3.2.5.2h.1v.3h0c-.3,0-.6,0-.8,0s-.5,0-.7,0h0s0,0,0,0v-.2h0c.3,0,.5-.1.6-.4l1.1-3.2c0-.3.2-.6.3-.9.2,0,.5-.2.6-.3,0,0,0,0,0,0,0,0,0,0,0,0,0,0,0,.1,0,.2l1.3,3.6c0,.2.2.5.3.7,0,.2.2.3.4.3h0v.3h0ZM571.6,22.5h0c.3,0,.7,0,1,0s.6,0,.9,0h0c0-.1,0-.1,0-.1-.2,0-.4,0-.5-.3,0-.2-.2-.5-.3-.7l-1.3-3.6c0,0,0-.1,0-.2,0,0,0,0,0,0h0s0,0,0,0c-.1,0-.4.2-.6.3,0,.3-.2.6-.3.9l-1.1,3.2c-.1.3-.3.5-.6.5h0c.2.1.5.1.7.1s.5,0,.8,0h0c0-.1,0-.1,0-.1-.2,0-.5,0-.5-.3,0-.1,0-.3.2-.5h0s0,0,0,0l.2-.7h1.6l.3.8c0,.2.1.4.1.5,0,.2-.3.2-.5.2h0q0,.1,0,.1ZM570.2,20.4h0l.7-2h0s0,0,0,0h0s0,0,0,0l.7,2h-1.4ZM570.3,20.4h1.2l-.6-1.9-.6,1.9h0ZM570.9,18.5h0s0,0,0,0Z"/>
    <path class="st8" d="M575.3,21.8c0,.3.2.4.4.4.3,0,.6,0,.9,0,.3,0,.5-.2.7-.4.1-.2.2-.3.2-.5h.2c0,.4-.2.8-.3,1.2-.6,0-1.2,0-1.8,0s-1.2,0-1.8,0v-.2h0c.3,0,.5,0,.5-.5v-3.6c0-.4-.3-.4-.5-.4h0v-.2c.4,0,.7,0,1.1,0s.7,0,1.1,0v.2h-.2c-.3,0-.5,0-.5.4v3.6h0Z"/>
    <path class="st8" d="M577.5,22.5c-.6,0-1.2,0-1.8,0s-1.2,0-1.8,0h0v-.3h.1c.3,0,.5,0,.5-.4v-3.6c0-.3-.2-.4-.5-.4h-.1v-.3h0c.4,0,.7,0,1.1,0s.7,0,1.1,0h0v.3h-.2c-.3,0-.4,0-.4.3v3.6c0,.3.2.3.4.4.1,0,.3,0,.4,0s.3,0,.5,0c.3,0,.5-.2.6-.4.1-.1.2-.3.2-.5h0s0,0,0,0h.2,0c0,.4-.2.8-.3,1.2h0s0,0,0,0h0ZM577.4,22.5h0c0-.4.2-.7.2-1.1h-.1c0,.2-.1.3-.2.5-.1.2-.4.3-.7.4-.2,0-.4,0-.5,0s-.3,0-.4,0c-.2,0-.4-.1-.4-.4v-3.6c0-.4.2-.4.5-.4h.1c-.3-.1-.7-.1-1-.1s-.7,0-1.1,0h0c0,.1,0,.1,0,.1.2,0,.5,0,.5.4v3.6c0,.4-.3.5-.5.5h0c.6.1,1.2.1,1.8.1s1.2,0,1.8,0h0Z"/>
    <path class="st8" d="M577.6,17.5c.4,0,.7.3.7.7s-.3.7-.7.7-.7-.3-.7-.7c0-.4.3-.7.7-.7ZM577.6,18.8h0c.3,0,.6-.3.6-.6s-.2-.6-.6-.6-.6.3-.6.6.3.6.6.6ZM577.3,18.6h0c0,0,.1,0,.1-.1v-.5c0,0,0-.1-.1,0h0s.4,0,.4,0c.1,0,.2,0,.2.2s0,.2-.2.2v.2c.2,0,.2.1.3.2h0s-.1,0-.1,0c0,0-.1-.1-.3-.3h0v.2s0,0,.1,0h0s-.4,0-.4,0h0ZM577.5,18.2h0c0,0,.1,0,.1-.2s0-.2-.1-.2h0v.3Z"/>
    <path class="st5" d="M503,26.4c6.6,0,12.6-5.4,12.6-12s-6-12.2-12.6-12.2h-5.7c-6.7,0-12.2,5-12.2,12.2s5.5,12,12.2,12h5.7Z"/>
    <path class="st3" d="M497.3,3.2c-6.1,0-11.1,5-11.1,11.1,0,6.1,5,11.1,11.1,11.1,6.1,0,11.1-5,11.1-11.1,0-6.1-5-11.1-11.1-11.1ZM490.3,14.3h0c0-3,1.9-5.5,4.5-6.5v13.1c-2.6-1-4.5-3.6-4.5-6.5ZM499.8,20.9h0V7.8c2.6,1,4.5,3.6,4.5,6.5,0,3-1.9,5.5-4.5,6.5Z"/>
    <path class="st8" d="M519.5,7.4c0-1.1-.6-1.1-1.2-1.1v-.3c.5,0,1,0,1.5,0s1.3,0,2.2,0c3.3,0,5.1,2.2,5.1,4.4s-.7,4.4-5.2,4.4-1.2,0-1.8,0-1.1,0-1.7,0v-.3c.8,0,1.1-.1,1.2-1v-6.2h0ZM520.7,13.4h0c0,1,.7,1.1,1.3,1.1,2.7,0,3.6-2.1,3.6-4s-1.5-4.1-4-4.1-.8,0-1,0v6.9h0Z"/>
    <path class="st8" d="M527.5,14.6h.2c.4,0,.6,0,.6-.4v-3.4c0-.6-.2-.6-.7-.9v-.2c.6-.2,1.3-.4,1.4-.5,0,0,.2,0,.2,0s0,0,0,.2v4.9c0,.4.3.4.6.4h.2v.3c-.4,0-.9,0-1.3,0s-.9,0-1.4,0v-.3h0ZM528.9,7.1h0c-.3,0-.6-.3-.6-.6s.3-.6.6-.6.6.3.6.6-.3.6-.6.6Z"/>
    <path class="st8" d="M531.5,10.8c0-.5-.1-.6-.7-.8v-.2c.5-.2,1.1-.3,1.7-.6,0,0,0,0,0,.1v.8c.7-.5,1.3-1,2.2-1s1.5.8,1.5,1.8v3.3c0,.4.3.4.6.4h.2v.3c-.4,0-.9,0-1.3,0s-.9,0-1.4,0v-.3h.2c.4,0,.6,0,.6-.4v-3.3c0-.7-.4-1.1-1.2-1.1s-1.1.3-1.5.6v3.8c0,.4.3.4.6.4h.2v.3c-.4,0-.9,0-1.3,0s-.9,0-1.4,0v-.3h.2c.4,0,.6,0,.6-.4v-3.4h0Z"/>
    <path class="st8" d="M538,11.4c0,.1,0,.3,0,.7,0,1.2.9,2.2,1.9,2.2s1.2-.4,1.7-.9l.2.2c-.6.8-1.3,1.4-2.4,1.4-2,0-2.4-2-2.4-2.8,0-2.5,1.7-3.2,2.6-3.2s2.1.6,2.1,2c0,0,0,.2,0,.2h-.1c0,0-3.6,0-3.6,0h0ZM540.2,11h0c.3,0,.4-.2.4-.3,0-.6-.4-1.2-1.1-1.2s-1.3.6-1.5,1.5h2.2Z"/>
    <path class="st8" d="M542,14.6h.3c.4,0,.6,0,.6-.4v-3.6c0-.4-.5-.5-.7-.6v-.2c.9-.4,1.4-.7,1.6-.7s.1,0,.1.2v1.1h0c.3-.5.9-1.3,1.6-1.3s.7.2.7.7-.2.6-.6.6-.4-.3-.8-.3-.9.3-.9,1.1v3c0,.4.3.4.6.4h.7v.3c-.7,0-1.2,0-1.8,0s-1.1,0-1.5,0v-.3h0Z"/>
    <path class="st8" d="M546.9,13.1c.2.8.7,1.6,1.6,1.6s1-.5,1-.9c0-1.5-2.8-1-2.8-3.1s.6-1.6,2-1.6,1,.1,1.4.4v1.3c0,0-.2,0-.2,0-.1-.8-.6-1.3-1.4-1.3s-1,.3-1,.8c0,1.5,2.9,1,2.9,3s-.7,1.7-2.2,1.7-1.1-.2-1.5-.4v-1.5c-.1,0,0,0,0,0h0Z"/>
    <path class="st8" d="M562,8.3h-.3c-.2-1.5-1.3-2.1-2.7-2.1s-3.6,1-3.6,4,1.8,4.4,3.8,4.4,2.3-.9,2.6-2.2h.3c0,0-.3,1.9-.3,1.9-.5.3-2,.7-2.8.7-3,0-4.9-1.9-4.9-4.8s2.3-4.5,4.8-4.5,2,.3,3,.7v1.8h.1Z"/>
    <path class="st8" d="M562.4,14.6h.2c.4,0,.6,0,.6-.4v-7.1c0-.8-.2-.9-.7-1v-.2c.5-.2,1-.4,1.3-.5.1,0,.2-.1.3-.1,0,0,.1,0,.1.2v8.8c0,.4.3.4.6.4h.2v.3c-.4,0-.9,0-1.3,0s-.9,0-1.4,0v-.3h0Z"/>
    <path class="st8" d="M570.6,14.2c0,.2.1.2.4.2s.3,0,.5,0v.3c-.5,0-1.6.3-1.8.4h0v-1.1c-.8.6-1.3,1.1-2.2,1.1s-1.4-.4-1.4-1.5v-3.3c0-.3,0-.6-.8-.7v-.2c.5,0,1.5,0,1.6,0s.1,0,.1.4v3.3c0,.4,0,1.5,1.1,1.5s1-.3,1.5-.8v-3.4c0-.3-.6-.4-1.1-.5v-.2c1.1,0,1.9-.2,2-.2s.1,0,.1.2v4.7h0Z"/>
    <path class="st8" d="M573.1,10c.5-.4,1.2-.9,1.9-.9,1.5,0,2.4,1.3,2.4,2.7s-1.2,3.3-3,3.3-1.4-.3-1.8-.4l-.4.3h-.3c.1-.9.2-1.6.2-2.4v-5.5c0-.8-.2-.9-.7-1v-.2c.5-.2,1-.4,1.3-.5.1,0,.2-.1.3-.1,0,0,.1,0,.1.2v4.6h0ZM573.1,13.5h0c0,.5.5,1.3,1.3,1.3,1.4,0,1.9-1.3,1.9-2.5s-1-2.5-2-2.5-.9.3-1.2.6v3.1h0Z"/>
    <path class="st8" d="M518.3,22.3h0c.2,0,.5,0,.5-.4v-3.6c0-.4-.3-.4-.5-.4h0v-.2c.3,0,.7,0,1,0s.8,0,1.1,0v.2h0c-.2,0-.5,0-.5.4v3.6c0,.4.3.4.5.4h0v.2c-.3,0-.7,0-1.1,0s-.7,0-1,0v-.2h0Z"/>
    <path class="st8" d="M520.4,22.5c-.3,0-.7,0-1.1,0s-.7,0-1,0h0v-.2h0s0,0,0,0h0c.3,0,.5,0,.5-.4v-3.6c0-.3-.2-.4-.5-.4h-.1v-.3h0c.3,0,.7,0,1,0s.8,0,1.1,0h0v.3h-.1c-.3,0-.5,0-.5.4v3.6c0,.3.2.4.5.4h.1v.3h0ZM520.4,22.5h0c0-.1,0-.1,0-.1-.2,0-.5,0-.5-.4v-3.6c0-.4.3-.4.5-.4h0c-.3-.1-.7-.1-1.1-.1s-.7,0-1,0h0c0,.1,0,.1,0,.1.2,0,.5,0,.5.4v3.6c0,.4-.3.4-.5.4h0c.3.1.7.1,1,.1.3,0,.7,0,1.1,0h0Z"/>
    <path class="st8" d="M525.2,21.1h0v-2.6c0-.6-.4-.7-.6-.7h-.2v-.2c.3,0,.6,0,1,0s.6,0,.9,0v.2h-.1c-.3,0-.6,0-.6.9v3.1c0,.2,0,.5,0,.7h-.3l-3.6-4v2.8c0,.6.1.8.6.8h.1v.2c-.3,0-.6,0-.9,0s-.6,0-.9,0v-.2h0c.5,0,.6-.3.6-.9v-2.9c0-.4-.3-.6-.6-.6h0v-.2c.3,0,.5,0,.8,0s.4,0,.6,0l3.1,3.5h0Z"/>
    <path class="st8" d="M525.6,22.6h-.3s-3.5-3.9-3.5-3.9v2.8c0,.6,0,.8.6.8h.1v.3h0c-.3,0-.6,0-.9,0s-.6,0-.9,0h0v-.3h.1c.5,0,.6-.3.6-.8v-2.9c0-.4-.3-.6-.6-.6h-.1v-.3h0c.3,0,.5,0,.8,0s.4,0,.6,0l3,3.4v-2.5c0-.6-.4-.6-.6-.6h-.2v-.3h0c.3,0,.6,0,1,0s.6,0,.9,0h0v.3h-.1c-.3,0-.6,0-.6.8v3.1c0,.2,0,.5,0,.7h0s0,0,0,0h0ZM525.3,22.6h.2c0-.2,0-.4,0-.7v-3.1c0-.8.3-.9.6-.9h0c-.3-.1-.5-.1-.8-.1s-.6,0-.9,0h0c0,.1.1.1.1.1.2,0,.6,0,.6.7v2.6s0,0,0,0h0s-3.1-3.5-3.1-3.5c-.2,0-.4,0-.6,0s-.5,0-.8,0h0c0,.1,0,.1,0,.1.3,0,.7.2.7.7v2.9c0,.6-.2.9-.7.9h0s0,.1,0,.1c.3,0,.6,0,.9,0s.6,0,.9,0h0c0-.1,0-.1,0-.1-.5,0-.7-.2-.7-.8v-2.9l3.6,4h0ZM525.2,21.1h0s0,0,0,0ZM525.1,21.1h0s0,0,0,0h0Z"/>
    <path class="st8" d="M527.3,18c-.5,0-.5.1-.6.6h-.2c0-.2,0-.4,0-.6,0-.2,0-.4,0-.6h.2c0,.2.2.2.4.2h3.6c.2,0,.4,0,.4-.2h.2c0,.2,0,.4,0,.6,0,.2,0,.4,0,.6h-.2c0-.2,0-.6-.5-.6h-1.1v3.7c0,.5.2.6.6.6h.1v.2c-.3,0-.8,0-1.1,0s-.9,0-1.2,0v-.2h.1c.4,0,.6,0,.6-.6v-3.7h-1.1Z"/>
    <path class="st8" d="M530,22.5c-.3,0-.8,0-1.1,0s-.9,0-1.2,0h0v-.3h.2c.4,0,.5,0,.5-.5v-3.7h-1.1c0,0,1.2,0,1.2,0v3.7c0,.6-.2.6-.6.6h-.1c.3.1.7.1,1.1.1s.8,0,1.1,0h0c0-.1-.1-.1-.1-.1-.3,0-.6,0-.6-.6v-3.7h1.2c.5,0,.5.4.5.7h.1c0-.2,0-.4,0-.6,0-.2,0-.4,0-.5h-.1c0,.2-.2.2-.4.2h-3.6c-.2,0-.3,0-.4-.2h-.1c0,.2,0,.4,0,.6,0,.2,0,.4,0,.6h.1c0-.5.2-.6.7-.6h0c-.5,0-.5.2-.6.7h0s0,0,0,0h-.2,0c0-.2,0-.4,0-.6,0-.2,0-.4,0-.6h0s0,0,0,0h.2c0,.2.2.2.4.2h3.6c.2,0,.3,0,.3-.2h0s0,0,0,0h.2s0,0,0,0c0,.2,0,.4,0,.6,0,.2,0,.4,0,.6h0s0,0,0,0h-.2c0,0,0,0,0,0,0-.3,0-.6-.5-.6h-1.1v3.6c0,.5.2.6.5.6h.2v.3h0Z"/>
    <path class="st8" d="M531.5,22.3h0c.2,0,.5,0,.5-.4v-3.6c0-.4-.3-.4-.5-.4h0v-.2c.4,0,1.1,0,1.7,0s1.3,0,1.8,0c0,.3,0,.8,0,1.1h-.2c0-.4-.1-.8-.8-.8h-1v1.8h.8c.4,0,.5-.2.5-.6h.2c0,.3,0,.5,0,.8s0,.5,0,.8h-.2c0-.4,0-.6-.5-.6h-.8v1.6c0,.5.4.5.8.5.8,0,1.2,0,1.4-.8h.2c0,.4-.2.8-.2,1.1-.4,0-1.2,0-1.9,0s-1.4,0-1.8,0v-.2h0Z"/>
    <path class="st8" d="M535.2,22.5c-.4,0-1.2,0-1.9,0s-1.4,0-1.8,0h0v-.2h0s0,0,0,0h0c.3,0,.5,0,.5-.4v-3.6c0-.3-.2-.4-.5-.4h-.1v-.3h0c.4,0,1.1,0,1.7,0s1.3,0,1.8,0h0,0c0,.1,0,.3,0,.4,0,.2,0,.5,0,.7h0s0,0,0,0h-.2c0,0,0,0,0,0,0-.4-.1-.8-.8-.8h-.9v1.8s.8,0,.8,0c.4,0,.5-.2.5-.6h0s0,0,0,0h.2,0c0,.3,0,.6,0,.8s0,.5,0,.8h0s0,0,0,0h-.2s0,0,0,0c0-.4,0-.7-.5-.7h-.8s0,1.6,0,1.6c0,.4.4.4.8.4.8,0,1.2,0,1.4-.8h0s0,0,0,0h.2c0,0,0,0,0,0,0,.4-.2.7-.2,1.1h0s0,0,0,0h0ZM535.1,22.5h0c0-.3.1-.7.2-1h-.1c-.2.7-.6.8-1.4.8-.4,0-.9,0-.9-.5v-1.6h.9c.5,0,.5.3.6.7h.1c0-.3,0-.5,0-.8s0-.5,0-.8h-.1c0,.4-.2.6-.6.6h-.9v-1.9h1c.7,0,.8.4.9.8h.1c0-.2,0-.5,0-.7s0-.2,0-.3c-.5,0-1.2,0-1.7,0s-1.3,0-1.7,0h0c0,.1,0,.1,0,.1.2,0,.5,0,.5.4v3.6c0,.4-.3.4-.5.4h0c.4.1,1.2.1,1.8.1.6,0,1.4,0,1.8,0h0Z"/>
    <path class="st8" d="M536.3,18.4c0-.5-.3-.5-.5-.5h-.1v-.2c.2,0,.6,0,1.1,0s.7,0,1.1,0c.9,0,1.6.2,1.6,1.2s-.4,1-1,1.2l1.2,1.8c.2.3.3.4.7.4v.2c-.2,0-.4,0-.7,0s-.4,0-.6,0c-.5-.7-1-1.4-1.4-2.2h-.5v1.5c0,.5.2.6.6.6h.1v.2c-.4,0-.8,0-1.2,0s-.7,0-1,0v-.2h.1c.3,0,.5-.1.5-.4v-3.5h0ZM537.2,20h.3c.7,0,1.1-.3,1.1-1.1s-.4-1-1-1-.3,0-.4,0v2.1h0Z"/>
    <path class="st8" d="M540.4,22.5c-.2,0-.5,0-.7,0s-.4,0-.7,0c-.5-.7-1-1.4-1.4-2.2h-.4v1.4c0,.5.2.5.5.5h.2v.3h0c-.4,0-.8,0-1.2,0s-.7,0-1,0h0v-.3h.2c.2,0,.5-.1.5-.3v-3.5c0-.5-.2-.5-.5-.5h-.2v-.3h0c.2,0,.7,0,1.1,0s.7,0,1.1,0c.9,0,1.7.2,1.7,1.2,0,.6-.4,1-.9,1.2l1.2,1.7c.2.3.3.4.7.4h0v.3h0ZM537.2,20.2h.5c.5.8.9,1.6,1.4,2.2.2,0,.4,0,.6,0s.4,0,.6,0v-.2c-.3,0-.5-.1-.7-.4l-1.2-1.8h0c.5-.2.9-.6.9-1.2,0-1-.7-1.2-1.6-1.2-.4,0-.7,0-1.1,0s-.8,0-1,0h0c0,.1,0,.1,0,.1.2,0,.5,0,.5.6v3.5c0,.3-.3.4-.5.4h0c.3.1.6.1,1,.1s.8,0,1.2,0h0c0-.1,0-.1,0-.1-.3,0-.6,0-.6-.6v-1.5h0ZM537.2,20h0v-2.1h0c0,0,.2,0,.4,0,.6,0,1,.4,1,1,0,.8-.4,1.1-1.1,1.1h-.3ZM537.6,20h0c.7,0,1-.2,1-1,0-.6-.4-1-1-1-.2,0-.3,0-.4,0v2h.3Z"/>
    <path class="st8" d="M545.1,21.1h0v-2.6c0-.6-.4-.7-.6-.7h-.2v-.2c.3,0,.6,0,1,0s.6,0,.9,0v.2h-.1c-.3,0-.6,0-.6.9v3.1c0,.2,0,.5,0,.7h-.3l-3.6-4v2.8c0,.6.1.8.6.8h.1v.2c-.3,0-.6,0-.9,0s-.6,0-.9,0v-.2h0c.5,0,.6-.3.6-.9v-2.9c0-.4-.3-.6-.6-.6h0v-.2c.3,0,.5,0,.8,0s.4,0,.6,0l3.1,3.5h0Z"/>
    <path class="st8" d="M545.5,22.6h-.3s-3.5-3.9-3.5-3.9v2.8c0,.6,0,.8.6.8h.1v.3h0c-.3,0-.6,0-.9,0s-.6,0-.9,0h0v-.3h.1c.5,0,.6-.3.6-.8v-2.9c0-.4-.3-.6-.6-.6h-.1v-.3h0c.3,0,.5,0,.8,0s.4,0,.6,0l3,3.4v-2.5c0-.5-.4-.6-.6-.6h-.2v-.3h0c.3,0,.6,0,1,0s.6,0,.9,0h0v.3h-.1c-.3,0-.6,0-.6.8v3.1c0,.2,0,.5,0,.7h0s0,0,0,0h0ZM545.3,22.6h.2c0-.2,0-.4,0-.7v-3.1c0-.8.4-.9.6-.9h0c-.3-.1-.5-.1-.8-.1s-.6,0-.9,0h0c0,.1.1.1.1.1.2,0,.6,0,.6.7v2.6s0,0,0,0h0s-3.1-3.5-3.1-3.5c-.2,0-.4,0-.6,0s-.5,0-.8,0h0c0,.1,0,.1,0,.1.3,0,.7.2.7.7v2.9c0,.6-.2.9-.7.9h0s0,.1,0,.1c.3,0,.6,0,.9,0s.6,0,.9,0h0c0-.1,0-.1,0-.1-.5,0-.7-.2-.7-.8v-2.9l3.6,4h0ZM545.1,21.1h0s0,0,0,0ZM545.1,21.1h0s0,0,0,0h0Z"/>
    <path class="st8" d="M547.3,21.5c0,.2-.2.4-.2.5,0,.2.3.2.5.2h0v.2c-.3,0-.6,0-.8,0s-.5,0-.7,0v-.2h0c.3,0,.5-.2.6-.4l1.1-3.2c0-.3.2-.6.3-.9.2,0,.5-.2.6-.3,0,0,0,0,0,0s0,0,0,0c0,0,0,.1,0,.2l1.3,3.6c0,.2.2.5.3.7,0,.2.2.3.5.3h0v.2c-.3,0-.6,0-1,0s-.7,0-1,0v-.2h0c.2,0,.4,0,.4-.2s0-.3-.1-.5l-.3-.8h-1.6l-.2.7h0ZM548.3,18.5h0l-.6,2h1.3l-.6-2Z"/>
    <path class="st8" d="M551,22.5c-.3,0-.6,0-1,0s-.7,0-1,0h0s0,0,0,0v-.2h.1c.2,0,.4,0,.4-.2,0,0,0-.3-.1-.5l-.3-.8h-1.5l-.2.7c0,.2-.2.4-.2.5,0,.2.3.2.5.2h.1v.3h0c-.3,0-.6,0-.8,0s-.5,0-.7,0h0s0,0,0,0v-.2h0c.3,0,.5-.1.6-.4l1.1-3.2c0-.3.2-.6.3-.9.2,0,.5-.2.6-.3,0,0,0,0,0,0,0,0,0,0,0,0,0,0,0,.1,0,.2l1.3,3.6c0,.2.2.5.3.7,0,.2.2.3.4.3h0v.3h0ZM549,22.5h0c.3,0,.7,0,1,0s.6,0,.9,0h0c0-.1,0-.1,0-.1-.2,0-.4,0-.5-.3,0-.2-.2-.5-.3-.7l-1.3-3.6c0,0,0-.1,0-.2,0,0,0,0,0,0h0s0,0,0,0c-.1,0-.4.2-.6.3,0,.3-.2.6-.3.9l-1.1,3.2c-.1.3-.3.5-.6.5h0c.2.1.5.1.7.1s.5,0,.8,0h0c0-.1,0-.1,0-.1-.2,0-.5,0-.5-.3,0-.1,0-.3.2-.5h0s0,0,0,0l.2-.7h1.6l.3.8c0,.2.1.4.1.5,0,.2-.3.2-.5.2h0q0,.1,0,.1ZM547.6,20.4h0l.7-2h0s0,0,0,0h0s0,0,0,0l.7,2h-1.4ZM547.7,20.4h1.2l-.6-1.9-.6,1.9ZM548.3,18.5h0s0,0,0,0Z"/>
    <path class="st8" d="M551.3,18c-.5,0-.5.1-.6.6h-.2c0-.2,0-.4,0-.6,0-.2,0-.4,0-.6h.2c0,.2.2.2.4.2h3.6c.2,0,.4,0,.4-.2h.2c0,.2,0,.4,0,.6,0,.2,0,.4,0,.6h-.2c0-.2,0-.6-.5-.6h-1.1v3.7c0,.5.2.6.6.6h.1v.2c-.3,0-.8,0-1.1,0s-.9,0-1.2,0v-.2h.1c.4,0,.6,0,.6-.6v-3.7h-1.1Z"/>
    <path class="st8" d="M554,22.5c-.3,0-.8,0-1.1,0s-.9,0-1.2,0h0v-.3h.2c.4,0,.5,0,.5-.5v-3.7h-1.1c0,0,1.2,0,1.2,0v3.7c0,.6-.2.6-.6.6h-.1c.3.1.7.1,1.1.1s.8,0,1.1,0h0c0-.1-.1-.1-.1-.1-.3,0-.6,0-.6-.6v-3.7h1.2c.5,0,.5.4.5.7h.2c0-.2,0-.4,0-.6,0-.2,0-.4,0-.5h-.1c0,.2-.2.2-.4.2h-3.6c-.2,0-.3,0-.4-.2h-.1c0,.2,0,.4,0,.6,0,.2,0,.4,0,.6h.1c0-.5.2-.6.7-.6h0c-.5,0-.5.2-.6.7h0s0,0,0,0h-.2,0c0-.2,0-.4,0-.6,0-.2,0-.4,0-.6h0s0,0,0,0h.2c0,.2.2.2.4.2h0s3.6,0,3.6,0c.2,0,.3,0,.3-.2h0s0,0,0,0h.2s0,0,0,0c0,.2,0,.4,0,.6,0,.2,0,.4,0,.6h0s0,0,0,0h-.2c0,0,0,0,0,0,0-.3,0-.6-.5-.6h-1.1v3.6c0,.5.2.6.5.6h.2v.3h0Z"/>
    <path class="st8" d="M555.5,22.3h0c.2,0,.5,0,.5-.4v-3.6c0-.4-.3-.4-.5-.4h0v-.2c.3,0,.7,0,1,0s.8,0,1.1,0v.2h0c-.2,0-.5,0-.5.4v3.6c0,.4.3.4.5.4h0v.2c-.3,0-.7,0-1.1,0s-.7,0-1,0v-.2h0Z"/>
    <path class="st8" d="M557.6,22.5c-.3,0-.7,0-1.1,0s-.7,0-1,0h0v-.2h0s0,0,0,0h0c.2,0,.5,0,.5-.4v-3.6c0-.3-.2-.4-.5-.4h-.1v-.3h0c.3,0,.7,0,1,0s.8,0,1.1,0h0v.3h-.1c-.3,0-.5,0-.5.4v3.6c0,.3.2.4.5.4h.1v.3h0ZM557.6,22.5h0c0-.1,0-.1,0-.1-.2,0-.5,0-.5-.4v-3.6c0-.4.3-.4.5-.4h0c-.3-.1-.7-.1-1.1-.1s-.7,0-1,0h0c0,.1,0,.1,0,.1.2,0,.5,0,.5.4v3.6c0,.4-.3.4-.5.4h0c.3.1.7.1,1,.1s.7,0,1.1,0h0Z"/>
    <path class="st8" d="M560.4,17.6c1.5,0,2.6.9,2.6,2.4s-1.1,2.6-2.6,2.6-2.6-1-2.6-2.5,1.1-2.6,2.6-2.6h0ZM560.5,22.3h0c1.3,0,1.6-1.2,1.6-2.2s-.5-2.2-1.7-2.2-1.6,1.1-1.6,2,.6,2.4,1.7,2.4h0Z"/>
    <path class="st8" d="M557.8,20.1c0-1.5,1.1-2.6,2.6-2.6h0c-1.4,0-2.5,1.2-2.5,2.6,0,1.5,1.1,2.5,2.6,2.5,1.5,0,2.6-1,2.6-2.6,0-1.5-1.2-2.4-2.6-2.4h0c1.5,0,2.7.9,2.7,2.4,0,1.6-1.2,2.7-2.6,2.7-1.5,0-2.6-1-2.6-2.5h0ZM558.8,19.9h0c0-.9.4-2,1.6-2,1.2,0,1.7,1.2,1.7,2.3,0,1-.2,2.2-1.6,2.2h0c1.3,0,1.5-1.2,1.5-2.2,0-1-.5-2.2-1.7-2.2-1.2,0-1.5,1.1-1.5,2,0,1.2.6,2.4,1.7,2.4h0c-1.1,0-1.7-1.1-1.7-2.4h0Z"/>
    <path class="st8" d="M567.7,21.1h0v-2.6c0-.6-.4-.7-.6-.7h-.1v-.2c.3,0,.6,0,1,0s.6,0,.9,0v.2h-.1c-.3,0-.6,0-.6.9v3.1c0,.2,0,.5,0,.7h-.3l-3.6-4v2.8c0,.6.1.8.6.8h.1v.2c-.3,0-.6,0-.9,0s-.6,0-.9,0v-.2h0c.5,0,.6-.3.6-.9v-2.9c0-.4-.3-.6-.6-.6h0v-.2c.3,0,.5,0,.8,0s.4,0,.6,0l3.1,3.5h0Z"/>
    <path class="st8" d="M568.1,22.6h-.3s-3.5-3.9-3.5-3.9v2.8c0,.6,0,.8.6.8h.1v.3h0c-.3,0-.6,0-.9,0s-.6,0-.9,0h0v-.3h.1c.5,0,.6-.3.6-.8v-2.9c0-.4-.3-.6-.6-.6h-.1v-.3h0c.3,0,.5,0,.8,0s.4,0,.6,0l3,3.4v-2.5c0-.6-.4-.6-.6-.6h-.2v-.3h0c.3,0,.6,0,1,0s.6,0,.9,0h0v.3h-.1c-.3,0-.6,0-.6.8v3.1c0,.2,0,.5,0,.7h0s0,0,0,0h0ZM567.8,22.6h.2c0-.2,0-.4,0-.7v-3.1c0-.8.3-.9.6-.9h0c-.3-.1-.5-.1-.8-.1s-.6,0-.9,0h0c0,.1.1.1.1.1.2,0,.6,0,.6.7v2.6s0,0,0,0h0s-3.1-3.5-3.1-3.5c-.2,0-.4,0-.6,0s-.5,0-.8,0h0c0,.1,0,.1,0,.1.3,0,.7.2.7.7v2.9c0,.6-.2.9-.7.9h0s0,.1,0,.1c.3,0,.6,0,.9,0s.6,0,.9,0h0c0-.1,0-.1,0-.1-.5,0-.7-.2-.7-.8v-2.9l3.6,4h0ZM567.7,21.1h0s0,0,0,0ZM567.7,21.1h0s0,0,0,0h0Z"/>
    <path class="st8" d="M569.9,21.5c0,.2-.2.4-.2.5,0,.2.3.2.5.2h0v.2c-.3,0-.6,0-.8,0s-.5,0-.7,0v-.2h0c.3,0,.5-.2.6-.4l1.1-3.2c0-.3.2-.6.3-.9.2,0,.5-.2.6-.3,0,0,0,0,0,0s0,0,0,0c0,0,0,.1,0,.2l1.3,3.6c0,.2.2.5.3.7,0,.2.2.3.5.3h0v.2c-.3,0-.6,0-1,0s-.7,0-1,0v-.2h0c.2,0,.4,0,.4-.2s0-.3-.1-.5l-.3-.8h-1.6l-.2.7h0ZM570.9,18.5h0l-.6,2h1.3l-.6-2Z"/>
    <path class="st8" d="M573.6,22.5c-.3,0-.6,0-1,0s-.7,0-1,0h0s0,0,0,0v-.2h.1c.2,0,.4,0,.4-.2,0,0,0-.3-.1-.5l-.3-.8h-1.5l-.2.7c0,.2-.2.4-.2.5,0,.2.3.2.5.2h.1v.3h0c-.3,0-.6,0-.8,0s-.5,0-.7,0h0s0,0,0,0v-.2h0c.3,0,.5-.1.6-.4l1.1-3.2c0-.3.2-.6.3-.9.2,0,.5-.2.6-.3,0,0,0,0,0,0,0,0,0,0,0,0,0,0,0,.1,0,.2l1.3,3.6c0,.2.2.5.3.7,0,.2.2.3.4.3h0v.3h0ZM571.6,22.5h0c.3,0,.7,0,1,0s.6,0,.9,0h0c0-.1,0-.1,0-.1-.2,0-.4,0-.5-.3,0-.2-.2-.5-.3-.7l-1.3-3.6c0,0,0-.1,0-.2,0,0,0,0,0,0h0s0,0,0,0c-.1,0-.4.2-.6.3,0,.3-.2.6-.3.9l-1.1,3.2c-.1.3-.3.5-.6.5h0c.2.1.5.1.7.1s.5,0,.8,0h0c0-.1,0-.1,0-.1-.2,0-.5,0-.5-.3,0-.1,0-.3.2-.5h0s0,0,0,0l.2-.7h1.6l.3.8c0,.2.1.4.1.5,0,.2-.3.2-.5.2h0q0,.1,0,.1ZM570.2,20.4h0l.7-2h0s0,0,0,0h0s0,0,0,0l.7,2h-1.4ZM570.3,20.4h1.2l-.6-1.9-.6,1.9h0ZM570.9,18.5h0s0,0,0,0Z"/>
    <path class="st8" d="M575.3,21.8c0,.3.2.4.4.4.3,0,.6,0,.9,0,.3,0,.5-.2.7-.4.1-.2.2-.3.2-.5h.2c0,.4-.2.8-.3,1.2-.6,0-1.2,0-1.8,0s-1.2,0-1.8,0v-.2h0c.3,0,.5,0,.5-.5v-3.6c0-.4-.3-.4-.5-.4h0v-.2c.4,0,.7,0,1.1,0s.7,0,1.1,0v.2h-.2c-.3,0-.5,0-.5.4v3.6h0Z"/>
    <path class="st8" d="M577.5,22.5c-.6,0-1.2,0-1.8,0s-1.2,0-1.8,0h0v-.3h.1c.3,0,.5,0,.5-.4v-3.6c0-.3-.2-.4-.5-.4h-.1v-.3h0c.4,0,.7,0,1.1,0s.7,0,1.1,0h0v.3h-.2c-.3,0-.4,0-.4.3v3.6c0,.3.2.3.4.4.1,0,.3,0,.4,0s.3,0,.5,0c.3,0,.5-.2.6-.4.1-.1.2-.3.2-.5h0s0,0,0,0h.2,0c0,.4-.2.8-.3,1.2h0s0,0,0,0h0ZM577.4,22.5h0c0-.4.2-.7.2-1.1h-.1c0,.2-.1.3-.2.5-.1.2-.4.3-.7.4-.2,0-.4,0-.5,0s-.3,0-.4,0c-.2,0-.4-.1-.4-.4v-3.6c0-.4.2-.4.5-.4h.1c-.3-.1-.7-.1-1-.1s-.7,0-1.1,0h0c0,.1,0,.1,0,.1.2,0,.5,0,.5.4v3.6c0,.4-.3.5-.5.5h0c.6.1,1.2.1,1.8.1s1.2,0,1.8,0h0Z"/>
    <path class="st8" d="M577.6,17.5c.4,0,.7.3.7.7s-.3.7-.7.7-.7-.3-.7-.7c0-.4.3-.7.7-.7ZM577.6,18.8h0c.3,0,.6-.3.6-.6s-.2-.6-.6-.6-.6.3-.6.6.3.6.6.6ZM577.3,18.6h0c0,0,.1,0,.1-.1v-.5c0,0,0-.1-.1,0h0s.4,0,.4,0c.1,0,.2,0,.2.2s0,.2-.2.2v.2c.2,0,.2.1.3.2h0s-.1,0-.1,0c0,0-.1-.1-.3-.3h0v.2s0,0,.1,0h0s-.4,0-.4,0h0ZM577.5,18.2h0c0,0,.1,0,.1-.2s0-.2-.1-.2h0v.3Z"/>
  </g>
</svg>